<svg width="27" height="28" viewBox="0 0 27 28" fill="none" xmlns="http://www.w3.org/2000/svg">
<path d="M13.7561 11.5376V16.7825H20.6524C20.3496 18.4693 19.4408 19.8975 18.0779 20.8578L22.2367 24.2683C24.6597 21.9044 26.0576 18.4324 26.0576 14.3079C26.0576 13.3476 25.9761 12.4241 25.8246 11.5377L13.7561 11.5376Z" fill="#4285F4"/>
<path d="M6.57469 16.5778L5.63674 17.3366L2.31665 20.0698C4.42516 24.4898 8.7467 27.5432 13.7558 27.5432C17.2156 27.5432 20.1162 26.3367 22.2364 24.2683L18.0776 20.8578C16.936 21.6704 15.4798 22.163 13.7558 22.163C10.4242 22.163 7.59349 19.7868 6.57993 16.5856L6.57469 16.5778Z" fill="#34A853"/>
<path d="M2.31665 7.93015C1.443 9.75226 0.942139 11.8084 0.942139 13.9999C0.942139 16.1914 1.443 18.2475 2.31665 20.0696C2.31665 20.0819 6.58034 16.573 6.58034 16.573C6.32406 15.7604 6.17258 14.8986 6.17258 13.9998C6.17258 13.1009 6.32406 12.2391 6.58034 11.4265L2.31665 7.93015Z" fill="#FBBC05"/>
<path d="M13.7561 5.84943C15.6433 5.84943 17.3208 6.53888 18.6604 7.8686L22.3299 3.99036C20.1049 1.79886 17.216 0.456772 13.7561 0.456772C8.74697 0.456772 4.42516 3.49783 2.31665 7.93017L6.58021 11.4268C7.59364 8.22563 10.4244 5.84943 13.7561 5.84943Z" fill="#EA4335"/>
</svg>
